<svg width="61" height="14" fill="none" xmlns="http://www.w3.org/2000/svg"><path d="M1.17 13.63a.53.53 0 01-.36-.144.467.467 0 01-.144-.342v-2.88c0-.132.048-.246.144-.342a.467.467 0 01.342-.144c.432 0 .762-.504.99-1.512.228-1.008.342-2.466.342-4.374V1.336c0-.132.048-.246.144-.342A.467.467 0 012.97.85h10.224c.132 0 .246.048.342.144.096.096.144.21.144.342v11.628a.467.467 0 01-.144.342.467.467 0 01-.342.144H9.846a.467.467 0 01-.342-.144.467.467 0 01-.144-.342V4.72H6.624v.918c0 2.76-.462 4.782-1.386 6.066-.924 1.284-2.28 1.926-4.068 1.926zm28.469-5.382c0 1.836-.612 3.192-1.836 4.068-1.212.876-2.832 1.314-4.86 1.314-2.028 0-3.654-.438-4.878-1.314-1.212-.876-1.818-2.244-1.818-4.104V6.088c0-1.224.288-2.238.864-3.042.588-.816 1.386-1.416 2.394-1.8C20.513.862 21.659.67 22.943.67c1.284 0 2.424.192 3.42.576 1.008.384 1.806.978 2.394 1.782.588.804.882 1.812.882 3.024v2.196zm-8.532.342c0 .492.162.87.486 1.134.336.264.786.396 1.35.396.564 0 1.008-.132 1.332-.396.336-.276.504-.66.504-1.152V5.728c0-.492-.168-.87-.504-1.134-.324-.276-.768-.414-1.332-.414-.564 0-1.014.132-1.35.396-.324.264-.486.642-.486 1.134v2.88zm17.633 4.374a.467.467 0 01-.144.342.467.467 0 01-.342.144h-3.708a.467.467 0 01-.342-.144.467.467 0 01-.144-.342V1.336c0-.132.048-.246.144-.342a.467.467 0 01.342-.144h9.774c.132 0 .246.048.342.144.096.096.144.21.144.342v2.898a.467.467 0 01-.144.342.467.467 0 01-.342.144h-5.598l.018 8.244zm21.485-4.716c0 1.836-.612 3.192-1.836 4.068-1.212.876-2.832 1.314-4.86 1.314-2.028 0-3.654-.438-4.878-1.314-1.212-.876-1.818-2.244-1.818-4.104V6.088c0-1.224.288-2.238.864-3.042.588-.816 1.386-1.416 2.394-1.8C51.099.862 52.245.67 53.529.67c1.284 0 2.424.192 3.42.576 1.008.384 1.806.978 2.394 1.782.588.804.882 1.812.882 3.024v2.196zm-8.532.342c0 .492.162.87.486 1.134.336.264.786.396 1.35.396.564 0 1.008-.132 1.332-.396.336-.276.504-.66.504-1.152V5.728c0-.492-.168-.87-.504-1.134-.324-.276-.768-.414-1.332-.414-.564 0-1.014.132-1.35.396-.324.264-.486.642-.486 1.134v2.88z" fill="#fff"/></svg>